<mxfile host="app.diagrams.net" modified="2021-06-19T22:56:55.565Z" agent="5.0 (Windows NT 10.0; Win64; x64) AppleWebKit/537.36 (KHTML, like Gecko) Chrome/91.0.4472.77 Safari/537.36" etag="kezssL7MZ2VFBNiaF0B8" version="14.8.0" type="github">
  <diagram id="VnTN66aC46P1TvEaTtfK" name="Page-1">
    <mxGraphModel dx="1360" dy="922" grid="1" gridSize="10" guides="1" tooltips="1" connect="1" arrows="1" fold="1" page="1" pageScale="1" pageWidth="850" pageHeight="1100" math="0" shadow="0">
      <root>
        <mxCell id="0" />
        <mxCell id="1" parent="0" />
        <mxCell id="QyggJa5hF2u7KrIEu_B1-11" style="edgeStyle=orthogonalEdgeStyle;rounded=0;orthogonalLoop=1;jettySize=auto;html=1;exitX=1;exitY=0.5;exitDx=0;exitDy=0;" edge="1" parent="1" source="QyggJa5hF2u7KrIEu_B1-1">
          <mxGeometry relative="1" as="geometry">
            <mxPoint x="397.5" y="420" as="targetPoint" />
          </mxGeometry>
        </mxCell>
        <mxCell id="QyggJa5hF2u7KrIEu_B1-1" value="Person Service" style="swimlane;startSize=23;" vertex="1" parent="1">
          <mxGeometry x="50" y="290" width="195" height="180" as="geometry" />
        </mxCell>
        <mxCell id="QyggJa5hF2u7KrIEu_B1-3" value="DB&lt;br&gt;" style="shape=datastore;whiteSpace=wrap;html=1;" vertex="1" parent="1">
          <mxGeometry x="97.5" y="560" width="100" height="110" as="geometry" />
        </mxCell>
        <mxCell id="QyggJa5hF2u7KrIEu_B1-4" value="" style="shape=doubleArrow;whiteSpace=wrap;html=1;rotation=-90;" vertex="1" parent="1">
          <mxGeometry x="97.5" y="510" width="100" height="20" as="geometry" />
        </mxCell>
        <mxCell id="QyggJa5hF2u7KrIEu_B1-12" style="edgeStyle=orthogonalEdgeStyle;rounded=0;orthogonalLoop=1;jettySize=auto;html=1;" edge="1" parent="1" source="QyggJa5hF2u7KrIEu_B1-5">
          <mxGeometry relative="1" as="geometry">
            <mxPoint x="540" y="110" as="targetPoint" />
            <Array as="points">
              <mxPoint x="723" y="110" />
            </Array>
          </mxGeometry>
        </mxCell>
        <mxCell id="QyggJa5hF2u7KrIEu_B1-14" value="Real Time Statistics" style="edgeLabel;html=1;align=center;verticalAlign=middle;resizable=0;points=[];" vertex="1" connectable="0" parent="QyggJa5hF2u7KrIEu_B1-12">
          <mxGeometry x="-0.2938" y="-1" relative="1" as="geometry">
            <mxPoint x="1" as="offset" />
          </mxGeometry>
        </mxCell>
        <mxCell id="QyggJa5hF2u7KrIEu_B1-5" value="Statistics and reporting Service" style="swimlane;" vertex="1" parent="1">
          <mxGeometry x="617.5" y="290" width="210" height="180" as="geometry">
            <mxRectangle x="490" y="200" width="210" height="23" as="alternateBounds" />
          </mxGeometry>
        </mxCell>
        <mxCell id="QyggJa5hF2u7KrIEu_B1-10" style="edgeStyle=orthogonalEdgeStyle;rounded=0;orthogonalLoop=1;jettySize=auto;html=1;exitX=1;exitY=0.5;exitDx=0;exitDy=0;entryX=0;entryY=0.5;entryDx=0;entryDy=0;" edge="1" parent="1" source="QyggJa5hF2u7KrIEu_B1-8" target="QyggJa5hF2u7KrIEu_B1-5">
          <mxGeometry relative="1" as="geometry" />
        </mxCell>
        <mxCell id="QyggJa5hF2u7KrIEu_B1-8" value="Kafka topic" style="whiteSpace=wrap;html=1;rounded=1;arcSize=50;align=center;verticalAlign=middle;strokeWidth=1;autosize=1;spacing=4;treeFolding=1;treeMoving=1;newEdgeStyle={&quot;edgeStyle&quot;:&quot;entityRelationEdgeStyle&quot;,&quot;startArrow&quot;:&quot;none&quot;,&quot;endArrow&quot;:&quot;none&quot;,&quot;segment&quot;:10,&quot;curved&quot;:1};" vertex="1" parent="1">
          <mxGeometry x="397.5" y="400" width="120" height="45" as="geometry" />
        </mxCell>
        <mxCell id="QyggJa5hF2u7KrIEu_B1-13" value="Actor" style="shape=umlActor;verticalLabelPosition=bottom;verticalAlign=top;html=1;" vertex="1" parent="1">
          <mxGeometry x="500" y="80" width="30" height="60" as="geometry" />
        </mxCell>
      </root>
    </mxGraphModel>
  </diagram>
</mxfile>
